<?xml version="1.0" encoding="utf-8"?>
<!-- Generator: Adobe Illustrator 25.2.2, SVG Export Plug-In . SVG Version: 6.00 Build 0)  -->
<svg version="1.1" id="Layer_1" xmlns="http://www.w3.org/2000/svg" xmlns:xlink="http://www.w3.org/1999/xlink" x="0px" y="0px"
	 viewBox="0 0 1000 1000" style="enable-background:new 0 0 1000 1000;" xml:space="preserve">
<style type="text/css">
	.st0{fill:#176EDD;}
	.st1{fill:#0064C7;}
	.st2{fill:#176BD8;}
	.st3{fill:#176BD9;}
	.st4{fill:#1668D2;}
	.st5{fill:#1359B4;}
	.st6{fill:#1669D3;}
	.st7{fill:#1565CC;}
	.st8{fill:#145FBE;}
	.st9{fill:#1562C5;}
	.st10{fill:#1562C6;}
	.st11{fill:#135BB8;}
	.st12{fill:#145FBF;}
	.st13{fill:#BDD6F5;}
	.st14{fill:#FEFEFE;}
	.st15{fill:#1256AD;}
	.st16{fill:#1257AF;}
	.st17{fill:#1668D3;}
	.st18{fill:#135AB5;}
	.st19{fill:#1255AB;}
	.st20{fill:#1155AA;}
	.st21{fill:#1669D5;}
	.st22{fill:#1460C1;}
	.st23{fill:#1566CD;}
	.st24{fill:#135BB7;}
</style>
<g>
	<path class="st0" d="M2.9,460.1c-1.9-1.8-0.9-4-0.9-6c-0.1-121.2-0.1-242.4,0-363.6c0-2.7,0.5-5.5,0.7-8.2c3.2,0,2.7,2.7,3.2,4.6
		c6.5,26.6,33.9,53,65.9,51.4c18.5-0.9,37.1-0.2,55.6-0.2c9.4,0,9.4,0,9.4-9.7c0-19.8,0-39.7,0-59.5c0-28.9-19-54.4-46.5-62.9
		c-2.6-0.8-6.2-0.5-6.8-4.5c2-1.8,4.4-1.2,6.7-1.2c35.6,0,71.3-0.1,106.9,0c73.2,0.1,136.6,25,190.4,74.7c0.8,0.7,1.6,1.4,2.4,2.1
		c2.3,1.9,4.5,4,6.3,6.4c25.9,27.1,46,57.9,59.2,93.1c1.1,2.9,2.7,4.6,6,4.5c1.8-0.1,3.9-0.5,5.5,1c-0.3,0.6-0.8,1-1.5,1.3
		c-1.2,0.5-2.6,0.6-3.7,1.2c-1.5,4,0.9,7.5,1.9,11c9.1,31.6,13.1,63.7,10.2,96.6c-0.6,7.2-1.1,14.4-2.2,21.6
		c-0.3,0.7-0.8,1.3-1.3,1.8c-4.1,15.4-6.9,31.1-12.3,46.1c-19,53.5-51.3,97-96.8,130.6c-40.4,29.8-85.8,46.6-135.6,51.9
		c-4,0.4-8.1,0.5-12.2,0.5c-45.9,0-91.8,0-137.7,0c0.5-3,3.1-2.5,5-2.8c28.8-5.4,46.3-22.9,54.5-50.4c1-3.5,1.5-7.1,1.5-10.7
		c0-22.4,0-44.8,0-67.2c0-7.2-0.5-7.7-7.5-7.8c-17.5-0.1-35-0.3-52.5,0.1c-25,0.6-46.1,9.5-60.8,30.7c-3.4,4.9-6.3,10.1-8.3,15.8
		C6.7,455.2,6.2,458.6,2.9,460.1z"/>
	<path class="st0" d="M489.7,403.9c25.4-25.5,20.5-59.7-1.4-79.3c3-2.1,4.7,0.5,6.7,1.9c2.6,1.7,3.5,6.8,6.8,5.7
		c3-1,2.4-5.5,2.8-8.6c6.7-44.1,5.8-87.8-6.5-131c-0.7-2.3-1.3-4.6,0.6-6.6c70.8,12.8,126.9,64.7,138.3,141.3
		c8.5,57.2-6.3,108.6-40.4,154.9c-23.5,31.9-51.5,59.8-77.6,89.4c-6.2,7-12.5,13.9-19.8,22c8.9,0,16.5,0,24,0c8.3,0,16.7,0,25,0
		c2.3,0,4.7,0.6,6.7-1.3c0.4-0.1,0.8-0.2,1.2-0.2c34.8-0.5,69.7-0.4,104.5-0.1c12.4,3.4,24.5,7.6,34.6,16c1.8,1.5,3.8,2.8,4.9,5
		c0,2.2,1.8,3.3,3,4.8c34.2,41.4,14.5,101.5-37.5,114.5c-2.7,0.7-5.3,1.6-7.9,2.4c-0.6,0.5-1.3,1-2.1,1.3c-2.9,0.8-5.9,0.5-8.9,0.5
		c-39.5,0-79.1,0-118.6,0c-3.5-0.1-3.4,2-2.7,4.5c0.2,0.8,0.4,1.7,0.4,2.5c0.1,0.9,0.1,1.7,0.1,2.6c0,0.9,0,1.7,0,2.6
		c0,1.5,0,2.9-0.3,4.4c-0.1,0.6-0.4,1.1-0.7,1.6c-0.2,0.2-0.5,0.3-0.7,0.5c-1.6-5.6-1.4-11.4-1.9-17.1c-0.3-2.7-1.1-3.9-3.8-3.6
		c-1.7,0.2-3.4,0-5.1,0c-57-0.1-114-0.1-171-0.3c-4.4,0-9,0.1-13.1-2.1c3.5-3,7.9-2.1,11.6-1.5c19.2,3.5,34.3-4.5,47.5-17
		c11.1-10.6,20.8-22.6,31.1-34c13.8-15.2,27.5-30.4,41-45.7c9.9-11.2,20.2-22,29.9-33.4c1.1-1.3,4.1-2.4,2-5.1
		c-49.1-0.3-98.2-0.1-147.3-0.1c-0.6,0-1.3,0.2-1.9,0.3c-9.3,2.6-18.5,5.6-27.2,9.8c-1.5,0.2-2.6-0.4-3.2-1.9
		c19.3-21.8,38.6-43.5,58-65.3"/>
	<path class="st0" d="M659,751.1c3.2,15.7,6.8,31.2,14,45.6c24.8,49.9,63.8,78,120.8,79.2c39,0.8,72.6-12.6,102.3-37.1
		c19.7-16.2,41.6-20.4,65.1-9.8c22.4,10.1,34.3,28.4,36.3,52.6c1.4,17.4-4.5,33.1-16.8,45.5c-23.4,23.7-50.8,42-82.1,53.1
		c-85.8,30.3-169.7,27.3-248.9-20.1c-64.9-38.9-103.5-97.5-120.4-170.8c-2.6-11.2-4.9-22.5-5.2-34.1c0,0,0.3-0.2,0.3-0.2
		c4.6,4.6,10.4,4.5,16.3,4.5c31.9-0.1,63.8-0.1,95.8-0.1c2.6,0,5.1,0,7.7-0.1C650.6,759.2,656.6,758.3,659,751.1z"/>
	<path class="st0" d="M570.4,566.6c18.1-28.3,41.6-51.3,69.4-69.8c57-38,120.1-51.1,187.8-44.7c36.4,3.4,71.4,12.1,104,29
		c11.5,6,22.5,13,33.1,20.6c30.3,21.7,38.5,62.6,18.1,91.6c-21.3,30.4-60.5,37-92.1,14.8c-18.8-13.2-38.3-24.9-60.9-30
		c-38.7-8.8-75.4-4.6-109.1,17.8c-0.9,0.6-1.9,0.9-2.8,1.3c-8.4-5.8-15.8-12.8-25.1-17.4c-13.3-6.5-27.2-9.7-41.9-9.9
		c-18.3-0.3-36.6-0.2-54.9,0c-7.3,0.1-14.4-1.5-21.6-1.5C572.8,568.3,571.4,567.9,570.4,566.6z"/>
	<path class="st1" d="M315.5,605.1c7.5-5.9,16.8-7.6,25.6-10.2c1.6-1,3.3-0.6,5-0.6c48.8,0,97.6,0,146.4,0c1.7,0,3.4-0.4,5,0.6
		c-12,13.5-24,27-36,40.4c-17.8,20-35.4,40.1-53.6,59.7c-8.4,9-15.5,19.2-25.9,26.3c-12.3,8.4-25.1,14.2-40.6,10.9
		c-3.9-0.8-8.1-0.1-12.1,0c-35.2-5.5-59.3-44.8-49.7-80.6c5.1-19.1,18-32.5,31.9-45.2C312.5,605,314.2,605.9,315.5,605.1z"/>
	<path class="st1" d="M2.9,460.1c4.9-13.9,11-26.9,22.3-37c11.5-10.2,24.7-16.3,40.1-18c22.8-2.6,45.6-0.5,68.3-1.3
		c4-0.1,5.1,1.4,5.1,5.2c-0.1,25,1,50-0.4,74.9c-1.5,25.5-22.5,51.6-50.7,58.3c-3.9,0.9-7.8,1.6-11.7,2.4c-46,2.2-78.8-34.5-73.3-82
		C2.7,461.8,2.8,461,2.9,460.1z"/>
	<path class="st1" d="M83.5,1.5C91.4,5,99.9,7,107.2,12c19.3,13.2,30.8,30.8,31.3,54.5c0.4,22-0.1,43.9,0.2,65.9
		c0.1,6.4-2,7.8-8,7.7c-20.7-0.4-41.4-0.2-62.1-0.1c-17,0.1-31.1-6.5-43.6-17.8c-9.7-8.8-15.7-19.7-20.7-31.5
		c-1.2-2.7,0.9-6.1-1.9-8.4C-3.4,36.1,30-1.3,76,0.4C78.5,0.5,81,1.1,83.5,1.5z"/>
	<path class="st0" d="M786.9,0.3c48.7,0,97.4,0,146.1,0c39.4,0,66.8,27.5,66.8,66.9c0,99.1,0,198.2,0,297.3c0,6.6-5.3,10-11.4,7.3
		c-1.2-0.6-1.4-1.4-1.4-2.5c0-1.7,0-3.4,0-5.1c0-98.7,0-197.3,0-296c0-33.8-21.4-55.1-55.2-55.1c-99.1,0-198.2,0-297.3,0
		c-2,0-5.3,1.1-5.8-1c-0.9-3.4-0.9-7.3,0-10.8c0.5-2.1,3.8-1,5.8-1C685.2,0.2,736.1,0.3,786.9,0.3z"/>
	<path class="st0" d="M213.1,999.8c-48.7,0-97.4,0-146.1,0c-39.3,0-66.8-27.5-66.8-66.9c0-99.1,0-198.2,0-297.3
		c0-6.6,5.3-10,11.4-7.3c1.2,0.6,1.4,1.4,1.4,2.5c0,1.7,0,3.4,0,5.1c0,99.3,0,198.6,0,297.9c0,27.5,17.1,48,43.7,52.6
		c3.5,0.6,7.2,0.6,10.8,0.6c99.3,0,198.6,0,297.9,0.1c2,0,5.3-1.1,5.8,1c0.9,3.4,0.8,7.3,0,10.8c-0.4,2-3.4,1-5.2,1"/>
	<path class="st0" d="M498.7,186c1.6,10,4.9,19.6,6.8,29.6c5.4,28.8,5.9,57.8,3.6,86.9c-0.8,9.7-2.4,19.3-3.9,28.9
		c-0.4,2.3-1,4.4-3.1,5.1c-2.5,0.8-2.8-2.1-4-3.4c-1.7-1.9-3-4.1-4.5-6.1c-0.9-2.5-0.4-5-0.1-7.6c6.3-42.6,4.3-84.7-6.8-126.3
		c-0.9-3.3-3.1-6.1-3.4-9.5C488.6,183.5,493.7,184.6,498.7,186z"/>
	<path class="st2" d="M570.4,566.6c28.3,2,56.6,0.5,84.9,1.5c22.8,0.8,42.9,9.6,60,24.8c1.3,1.1,2.6,2.3,2.6,4.2
		c-2.1,1.7-4.3,3.4-6.4,5.1c-16.3-16.4-36.3-24.8-59.1-25.3c-17.4-0.4-34.9-1.4-52.3-0.8c-8.9,0.3-17.9,0.1-26.9,0
		c-2.7,0-5.6,0.4-7.8-1.8C566.4,571.4,568.2,568.9,570.4,566.6z"/>
	<path class="st3" d="M659,751.1c-0.2,11.1,0.7,8-13,10.2c-7.1,1.2-14.5,0.2-21.7,0.2c-30.1,0-60.1-0.1-90.2,0.1
		c-5.3,0-8.9-0.7-9.6-6.6c0-0.4,0-0.8,0.1-1.3c2.4-2.3,5.5-2,8.5-2c34.3,0,68.5-0.2,102.8,0.1c5.3,0,10.6-0.1,15.9-1.1
		c1.7-0.3,3.4-0.5,3.8-2.6c0.2-1.1,0.2-2.3,0.3-3.4c0.2-1.6,0.5-3.1,1.9-4C659.1,744,658.9,747.6,659,751.1z"/>
	<path class="st2" d="M483.4,183.6c2.2,1.3,3.6,2.7,4.3,5.6c4.5,18.1,8.1,36.3,10,54.9c1.6,16.2,1.2,32.4,0.8,48.5
		c-0.3,11.5-1.1,23.3-4.8,34.5c-1.8-0.7-2.9-2.9-5.3-2.4c0,0,0.1,0,0.1,0c-1.6-2.7-1.7-5.6-1.3-8.7c2.7-17.3,3.9-34.7,3.3-52.2
		c-0.8-24.8-4.9-49.1-11.8-73c-0.7-2.3-1-5.2-4.5-5.4c-1.5-0.3-3-0.6-3.8-2.1C474.7,181,479,182.5,483.4,183.6z"/>
	<path class="st4" d="M565.3,574.4c21.3,0,42.6-0.9,63.9,0.3c12.8,0.7,25.6-0.9,38.4,2c15.6,3.6,29.5,10.3,41.7,20.5
		c1.6,1.3,2.4,3,2.2,5c-1.2,1-2.5,2.1-3.7,3.1c-18.3-18.3-40.9-24.8-66.3-24.3c-25.6,0.5-51.2,0-76.8,0.2c-1.1,0-2.1,0-3.1-0.6
		C562.2,578.3,563.3,576,565.3,574.4z"/>
	<path class="st5" d="M700.1,612.9c-3.8-0.2-5.7-3.6-8.2-5.6c-8.7-7-19.4-9.2-29.1-13.7c-4.8-1.1-9.7-1.3-14.5-1.3
		c-30.9-0.1-61.9-0.1-92.8,0c0,0-0.5,0-0.5,0c0.7-1.3,1.4-2.7,2.2-4c2.5-2.3,5.4-2.9,8.8-2.9c26,0.1,51.9-0.4,77.9,0.2
		c19.9,0.4,38.8,5,54.6,18.2c2.1,1.8,4.6,3.2,4.1,6.6C701.7,611.2,700.9,612.1,700.1,612.9z"/>
	<path class="st6" d="M474.4,183.6c4.6-0.8,5.3,2.8,6,5.8c4.8,20.2,9.6,40.2,11,61.1c0.8,13,1.2,25.9,0.7,38.8
		c-0.5,11.8-2.4,23.5-3.6,35.3c-3-1.1-5.3-3.2-7.8-5.2c4.6-5.8,3.7-13,4.4-19.5c0.8-8,1.6-16.1,1.5-24.2
		c-0.4-28.6-3.3-56.8-11.9-84.3C473.7,188.9,472.3,186.3,474.4,183.6z"/>
	<path class="st7" d="M474.4,183.6c2.6,11.1,6.5,21.9,8.3,33.2c2.1,13.2,3.6,26.3,4.9,39.6c1.3,13.5-0.2,26.7-0.5,40
		c-0.1,6.7-1.7,13.4-2.4,20.1c-0.3,2.7-2.1,2.8-4.1,2.9c-1.1,0-2-0.3-2.5-1.3c2.9-4.5,2.7-9.9,3.1-14.8c1.5-17.1,2.3-34.2,0.8-51.5
		c-1.8-21.3-5.4-42.1-11.6-62.5c-0.6-2-1.5-4.1,0-6.1c0,0,0,0,0,0C471.7,183.3,473,183.5,474.4,183.6z"/>
	<path class="st7" d="M561.5,580.8c1.7-0.9,3.5-1.3,5.5-1.3c29.1,0,58.3-0.6,87.4,0.3c18.1,0.5,34.7,7,48.7,19.1
		c2,1.7,4.5,3.4,4.6,6.6c-0.4,0.4-0.9,0.8-1.3,1.2c-7.5-3.5-13.2-9.7-20.9-13.4c-13.4-6.4-27.5-9.1-42-9.2c-26.7-0.3-53.4-0.2-80,0
		c-1.3,0-2.6,0.3-3.7-0.7C560,582.2,560.4,581.2,561.5,580.8z"/>
	<path class="st8" d="M702.5,610.3c-10-11.3-22.9-17.3-37.3-20.4c-10.4-2.2-20.9-2.9-31.6-2.8c-22.6,0.2-45.2,0.1-67.7,0
		c-3,0-5.9,0.1-8.8,1.2c0.4-0.8,0.9-1.7,1.3-2.5c2.4-2.1,5.3-2.5,8.3-2.5c26.7,0,53.4-0.5,80.1,0.2c19.9,0.5,38.6,6,54.2,19.3
		c1.9,1.6,4.4,3.1,2.7,6.3C703.4,609.5,702.9,609.9,702.5,610.3z"/>
	<path class="st9" d="M703.8,609c-2.6-7.1-9.2-9.7-14.8-13.1c-13-7.9-27.6-10.9-42.6-11.2c-26.8-0.5-53.6-0.1-80.4-0.2
		c-2.6,0-5.1,0.3-7.5,1.2c0.4-0.8,0.9-1.7,1.3-2.5c2.6-1.1,5.3-1.2,8.1-1.2c25.8,0,51.5-0.3,77.3,0.1c21.2,0.4,40.9,6.1,57.4,20.1
		c1.4,1.2,2.5,2.9,3.7,4.3C705.9,607.7,705,608.6,703.8,609z"/>
	<path class="st9" d="M470.4,183.2c6.9,22.1,11.3,44.5,13.3,67.7c1.8,20.9,0.1,41.5-1.7,62.1c-0.2,2.4-1,4.7-3.9,5.1
		c-2.4-0.2-4.6-1.1-6.5-2.5c0.9-1.3,2.3-1.5,3.7-1.9c4.6-3.3,3.1-8.7,3.4-12.9c0.7-10.4,2.2-20.7,1.7-31.2
		c-1.1-24-3.8-47.8-10.1-71.1c-1.4-5.3-4.8-10.6-2.3-16.5C468.8,182.5,469.6,182.9,470.4,183.2z"/>
	<path class="st10" d="M657.8,740.6c-0.1,1.4-0.2,2.8-0.3,4.1c-4.5,2.8-9.7,3-14.7,3c-37.2,0.1-74.5,0.1-111.7,0
		c-2.3,0-4.7,0-6.6-1.8c0-0.9,0-1.7,0-2.6c2.7-2.4,6-1.8,9.1-1.8c34.2,0,68.5,0,102.7,0c5.8,0,11.4-0.3,17-2
		c1.1-0.9,1.3-2.3,1.9-3.5c0.4-0.6,0.8-1.1,1.2-1.6c0.4,0,0.9,0,1.3,0C657.7,736.6,657.8,738.6,657.8,740.6z"/>
	<path class="st11" d="M475.7,315.5c-1.4,0-2.7,0.1-4.1,0.1c0,0-0.6,0.1-0.6,0.1s-0.5-0.3-0.5-0.3c0-0.4,0.1-0.9,0.1-1.3
		c3-3,2.6-7.2,3-10.8c3.1-29.2,1.9-58.2-4-87c-1.7-8.1-3.7-16.2-6.3-24.1c-1-3.2-2.7-6.3-1.7-9.9c1.3,0,2.5,0,3.8,0
		c5.4,11.7,7.7,24.3,10.2,36.8c6.1,30.5,6.8,61.2,2.6,92.1C477.9,312.9,478.5,315.2,475.7,315.5z"/>
	<path class="st12" d="M475.7,315.5c3.1-8.9,3.2-18.2,3.7-27.3c1.7-35.2-2.5-69.7-13.7-103.2c-0.3-0.8-0.2-1.7-0.3-2.5
		c0.5-0.1,1.1-0.3,1.6-0.4c0.4-0.2,0.7-0.2,1,0.1c3.2,13.8,7.3,27.4,9.5,41.3c3.5,21.9,6.4,43.9,3.6,66.2
		c-0.8,6.9-0.9,13.9-1.6,20.9C479.2,312.8,480.3,316.5,475.7,315.5z"/>
	<path class="st13" d="M396.3,83.4c-2.6-1.7-4.7-3.7-6.3-6.4C393.4,77.8,395.5,80,396.3,83.4z"/>
	<path class="st0" d="M315.5,605.1c-1,1.5-2.5,1.3-4,1.2c0.1-1,0.2-2,1.3-2.5C313.6,604.2,314.6,604.7,315.5,605.1z"/>
	<path class="st14" d="M303.7,349.1c1.4,2.3,1.2,4-0.7,6.2c-23.3,27.7-52.6,44.1-88.7,48.3c-22.1,2.6-44.3,0.6-66.5,1.2
		c-3.9,0.1-5.5-1.5-5.2-5.2c0.1-0.8,0-1.7,0-2.6c0-82.6,0-165.2,0-247.8c0-8.5,0-8.6,8.4-8.4c22.2,0.5,44.5-2,66.5,1.4
		c49.8,7.7,84.9,35.2,105.4,81.2c0.7,1.5,1.5,3.1,0.7,4.9c0.1,1-0.4,1.7-1,2.3c-1.8,1.4-3.4,3-5,4.6c-1.4,1.4-2.8,2.8-4.2,4.2
		c-2.3,2.3-4.6,4.6-6.8,7c-10.1,11.1-19,22.6-21.5,38.2c-2.7,16.9,0.9,32.4,8,47.5c1.3,2.9,3.2,5.5,5,8.2c1.1,1.9,2.4,3.6,4,5.2
		c0.8,0.8,1.5,1.7,1.8,2.8C303.8,348.6,303.7,348.9,303.7,349.1z"/>
	<path class="st15" d="M321.9,229.9c0.6-0.5,1.1-1,1.7-1.5c5.9,9,7.1,19.5,8.3,29.6c2.9,24.4-1.4,48.1-11.6,70.4
		c-3.1,6.7-7.6,12.8-11.2,19.2c-1.4,2.5-3.2,2.2-5.4,1.5c0,0,0-0.1,0-0.1c-1.5-3.2,0.3-5.8,1.9-8.3c14.5-21.7,21.2-45.7,20.8-71.6
		c-0.2-10-1.7-19.9-4.6-29.5c-0.7-2.2-1.6-4.4-1.3-6.8C320.8,231.7,321.2,230.8,321.9,229.9z"/>
	<path class="st16" d="M461.6,182.4c5.8,13.7,8.8,28.2,11.5,42.8c3.7,20.1,4.6,40.4,3.8,60.8c-0.3,8.4-1.7,16.8-2.5,25.2
		c-0.2,2.7-1.7,3.1-3.8,3c0.1-13.6,2.8-26.9,2.6-40.5c-0.4-29.1-4.1-57.7-13.5-85.5C459,186.5,454.9,182.2,461.6,182.4z"/>
	<path class="st17" d="M657.5,747.3c0.4,3.2-0.4,4.8-4.2,5.3c-5.5,0.8-10.9,1.1-16.5,1.1c-37.4,0-74.9,0-112.3,0
		c0-1.7-0.1-3.4-0.1-5.1c2.2-1.8,4.9-1.2,7.4-1.2c32.2,0,64.4-0.2,96.6,0.1c8.1,0.1,16.1,0.2,24.2-0.7
		C654.3,746.5,656,746.1,657.5,747.3z"/>
	<path class="st18" d="M656.3,735.8c0,1.3,0,2.6,0,3.8c-6.5,2.1-13.3,2.4-20,2.5c-35.1,0.2-70.1,0.1-105.2,0.1
		c-2.3,0-4.7,0.4-6.7-1.2c-1.7-2.1-2-4.3,0-6.4c2.2,1.8,4.9,1.2,7.4,1.2c37.7,0,75.5,0,113.2,0.1
		C648.7,735.9,652.5,734.2,656.3,735.8z"/>
	<path class="st7" d="M657.5,747.3c-8.3,1.2-16.5,3.3-25.1,1.4c-1.8-0.4-3.8-0.1-5.7-0.2c-34.1,0-68.2,0-102.3,0c0-0.9,0-1.7,0-2.6
		c44.3-0.7,88.7,1.5,133.1-1.3C657.5,745.6,657.5,746.5,657.5,747.3z"/>
	<path class="st12" d="M524.3,741c44-0.5,88,1.1,132-1.3c-4.3,4.8-10.4,3.7-15.6,3.7c-38.8,0.3-77.5,0.2-116.3,0.2
		C524.4,742.7,524.4,741.8,524.3,741z"/>
	<path class="st19" d="M656.3,735.8c-42.5,2.9-85.1,0.5-127.6,1.3c-1.9,0-4,0.2-4.3-2.5c44,0,88,0,132,0
		C656.3,735,656.3,735.4,656.3,735.8z"/>
	<path class="st20" d="M555.4,592.3c2-1.6,4.4-1.3,6.8-1.3c28.6,0,57.2-0.1,85.8,0.1c5,0,10.1,0.4,14.8,2.5
		c-33.6,0-67.2,0-100.8-0.1C559.8,593.5,557.2,594.6,555.4,592.3z"/>
	<path class="st0" d="M497.4,594.9c-52.1,0-104.2,0-156.3,0c1.9-2.1,4.4-1.3,6.6-1.3c47.7,0,95.4,0,143.1,0
		C493.1,593.6,495.6,592.8,497.4,594.9z"/>
	<path class="st0" d="M292.4,333.6c-14.2-22.2-13.3-54.6,2.3-75.4c3.6-4.7,6.8-9.8,11.7-13.4c1.9,1.4,2.4,3.5,2.8,5.6
		c5.7,29.1,0.6,56.3-15,81.5C293.7,332.5,293.1,333.1,292.4,333.6z"/>
	<path class="st21" d="M292.4,333.6c-0.2-2.3,1.1-3.9,2.1-5.8c8.3-14.9,13.7-30.7,14.8-48c0.8-12-1.2-23.4-2.9-35
		c1.6-2.6,3.8-4.8,6.4-6.5c2.7,10.4,5.1,20.8,4.9,31.8c-0.2,10.3-0.7,20.2-3,30.3c-2.3,9.9-6.4,18.9-10.9,27.9
		c-2.2,4.4-4.7,8.5-6.4,13.1C295,339.2,293.3,336.7,292.4,333.6z"/>
	<path class="st22" d="M321.9,229.9c0,0.8,0,1.5,0,2.3c-1.7,2-0.7,3.9-0.1,6c7.5,27.6,6.2,54.8-4.4,81.4
		c-3.1,7.7-6.9,15.1-11.9,21.8c-1.1,1.4-2,2.7-3.9,3c-4.8-1.6-3.3-4.8-1.7-7.6c3.8-6.7,7.7-13.2,10.5-20.4
		c8.9-23.4,11.2-47.1,4.8-71.5c-1-3.7-1.1-7.1,1.5-10.2C317.9,232.5,319.7,231,321.9,229.9z"/>
	<path class="st23" d="M316.7,234.6c-1.5,3.8-0.5,7.5,0.5,11.1c5.1,19.4,4.3,38.6-0.9,57.9c-3.4,12.6-8.1,24.5-15.8,35.1
		c-1.7,2.4-1.7,3.7,0.9,5c0.8,0.9,0.7,1.8-0.1,2.7c-2-1.1-3.2-2.9-3.9-5c-1.2-3.3,0.4-5.6,2-8.5c8-14,14.2-28.8,15.9-45
		c1.5-14.3,1.8-28.8-2.7-42.9c-0.8-2.5,0.2-4.5,0.1-6.8C313.7,236.6,314.9,235.3,316.7,234.6z"/>
	<path class="st24" d="M301.3,346.4c0-0.9,0-1.8,0.1-2.7c10.9-12.2,16.6-27.1,20.2-42.7c4.9-20.8,4.2-41.7-1.2-62.4
		c-0.7-2.6-1.8-4.9,1.5-6.5c3.7,14.4,7.1,28.8,6.4,43.8c-1.2,23.5-7.4,45.4-20.8,65c-1.7,2.5-3.1,5.1-3.7,8.1
		C302.4,348.6,301.7,347.7,301.3,346.4z"/>
</g>
<g>
</g>
<g>
</g>
<g>
</g>
<g>
</g>
<g>
</g>
<g>
</g>
</svg>
